<svg width="16" height="8" viewBox="0 0 16 8" fill="none" xmlns="http://www.w3.org/2000/svg">
<path fill-rule="evenodd" clip-rule="evenodd" d="M0 0.75C0 0.551088 0.0790175 0.360322 0.21967 0.21967C0.360322 0.0790175 0.551088 0 0.75 0H15.25C15.4489 0 15.6397 0.0790175 15.7803 0.21967C15.921 0.360322 16 0.551088 16 0.75C16 0.948912 15.921 1.13968 15.7803 1.28033C15.6397 1.42098 15.4489 1.5 15.25 1.5H0.75C0.551088 1.5 0.360322 1.42098 0.21967 1.28033C0.0790175 1.13968 0 0.948912 0 0.75ZM0 7.25C0 7.05109 0.0790175 6.86032 0.21967 6.71967C0.360322 6.57902 0.551088 6.5 0.75 6.5H15.25C15.4489 6.5 15.6397 6.57902 15.7803 6.71967C15.921 6.86032 16 7.05109 16 7.25C16 7.44891 15.921 7.63968 15.7803 7.78033C15.6397 7.92098 15.4489 8 15.25 8H0.75C0.551088 8 0.360322 7.92098 0.21967 7.78033C0.0790175 7.63968 0 7.44891 0 7.25Z" fill="#062533"/>
</svg>
