<svg width="16" height="17" viewBox="0 0 16 17" fill="none" xmlns="http://www.w3.org/2000/svg">
<path fill-rule="evenodd" clip-rule="evenodd" d="M3.855 7.786L4.922 7.252C5.11143 7.15747 5.26598 7.00526 5.36338 6.81729C5.46078 6.62931 5.49601 6.41528 5.464 6.206L5.024 3.348C4.9877 3.11197 4.86813 2.89671 4.68692 2.74118C4.5057 2.58564 4.27481 2.50009 4.036 2.5H3C2.73478 2.5 2.48043 2.60536 2.29289 2.79289C2.10536 2.98043 2 3.23478 2 3.5V5.5C2 6.209 2.082 6.9 2.238 7.562C2.62256 9.19074 3.45304 10.6802 4.6364 11.8636C5.81976 13.047 7.30926 13.8774 8.938 14.262C9.61389 14.4204 10.3058 14.5002 11 14.5H13C13.2652 14.5 13.5196 14.3946 13.7071 14.2071C13.8946 14.0196 14 13.7652 14 13.5V12.464C13.9999 12.2252 13.9144 11.9943 13.7588 11.8131C13.6033 11.6319 13.388 11.5123 13.152 11.476L10.294 11.036C10.0847 11.004 9.87069 11.0392 9.68271 11.1366C9.49474 11.234 9.34253 11.3886 9.248 11.578L8.714 12.645C7.57609 12.2796 6.54166 11.6482 5.69647 10.8032C4.85128 9.95814 4.22067 8.92384 3.855 7.786Z" fill="#062533"/>
</svg>
