<svg width="9" height="5" viewBox="0 0 9 5" fill="none" xmlns="http://www.w3.org/2000/svg">
<path fill-rule="evenodd" clip-rule="evenodd" d="M8.14785 0.335917C8.2883 0.476542 8.36719 0.667167 8.36719 0.865917C8.36719 1.06467 8.2883 1.25529 8.14785 1.39592L4.89785 4.64592C4.75722 4.78637 4.5666 4.86526 4.36785 4.86526C4.1691 4.86526 3.97847 4.78637 3.83785 4.64592L0.587848 1.39592C0.455368 1.25374 0.383244 1.0657 0.386672 0.871395C0.3901 0.677094 0.468813 0.491708 0.606226 0.354295C0.743639 0.216882 0.929024 0.13817 1.12333 0.134742C1.31763 0.131314 1.50567 0.203437 1.64785 0.335917L4.36785 3.05592L7.08785 0.335917C7.22847 0.195467 7.4191 0.116577 7.61785 0.116577C7.8166 0.116577 8.00722 0.195467 8.14785 0.335917Z" fill="#062533"/>
</svg>
